<svg width="97" height="62" viewBox="0 0 97 62" fill="none" xmlns="http://www.w3.org/2000/svg">
<path d="M18.8479 42.8136L18.5396 43.3247C17.8221 43.3247 17.1298 43.3748 16.4578 43.48C14.8509 48.8961 11.1672 51.6017 5.41685 51.6017C3.99695 51.6017 2.81453 51.3813 1.87466 50.9353C0.626558 50.3541 0 49.4373 0 48.1747C0 47.4582 0.237475 46.857 0.707408 46.371C1.17734 45.885 1.77362 45.6445 2.49115 45.6445C3.73925 45.6445 4.36584 46.1655 4.36584 47.2027C4.36584 47.7137 4.10813 48.0745 3.59777 48.2749C3.30469 48.345 2.87518 48.4603 2.29913 48.6206C1.72308 48.7809 1.44011 49.0615 1.44011 49.4523C1.44011 49.9984 1.89488 50.4143 2.79938 50.7049C3.48154 50.9253 4.16876 51.0356 4.85597 51.0356C6.79129 51.0356 8.44363 50.294 9.81301 48.811C10.8388 47.7037 11.7736 46.0954 12.6124 43.981C11.7887 44.1313 10.8994 44.467 9.94439 44.9731C9.68669 45.1234 8.86809 45.5994 7.4785 46.401L7.35218 46.3509C7.33702 46.3008 7.31682 46.2557 7.30166 46.2257C7.30166 45.7497 8.10508 45.1735 9.717 44.4921C11.051 43.9309 12.0869 43.5852 12.8246 43.4499C13.2541 42.2475 14.0576 40.7594 15.24 38.9958C16.6801 36.8414 17.8221 35.7441 18.6811 35.714L18.7822 35.7641L18.8327 35.9445C18.2011 37.4727 17.7615 38.61 17.524 39.3565C17.1652 40.4939 16.8822 41.6913 16.6751 42.9439C17.1652 42.9088 17.8928 42.8637 18.8479 42.8136ZM7.34712 43.3748C6.42241 43.3748 5.65939 43.1143 5.06313 42.5982C4.46182 42.0821 4.16371 41.3707 4.16371 40.4738C4.16371 39.6772 4.42647 38.8355 4.9621 37.9536C6.05861 36.1399 7.62505 34.6769 9.66142 33.5746C11.6473 32.4874 13.7241 31.9463 15.9019 31.9463C16.6902 31.9463 17.8575 32.1217 19.4087 32.4674C20.96 32.8181 22.1071 32.9884 22.86 32.9884C23.2187 32.9884 23.8858 32.803 24.861 32.4273L25.0126 32.4774L25.0631 32.6277C25.0631 33.1888 24.6538 33.74 23.8302 34.2811C23.0773 34.8072 22.4001 35.0727 21.8039 35.0727C21.0863 35.0727 19.7877 34.742 17.9131 34.0807C16.0384 33.4193 14.5983 33.0886 13.5877 33.0886C11.243 33.0886 8.98431 34.2109 6.8115 36.4505C5.42696 37.8785 4.72965 39.2062 4.72965 40.4488C4.72965 41.0099 4.89135 41.4909 5.21475 41.9018C5.53814 42.3076 5.97774 42.513 6.52347 42.513C7.90801 42.513 9.10052 41.9018 10.0909 40.6792C11.0308 39.5419 11.5007 38.2693 11.5007 36.8614C11.5007 36.4706 11.339 36.2752 11.0106 36.2752C10.6316 36.2752 10.2425 36.7011 9.82818 37.5478C9.51995 38.1941 9.31276 38.7803 9.2117 39.3064C8.83272 39.4768 8.39817 39.7323 7.90297 40.068C7.1147 40.6091 6.7054 40.8997 6.67003 40.9348C6.63466 40.8145 6.59928 40.6893 6.56896 40.554C6.56896 39.1611 6.93783 37.9336 7.67052 36.8614C8.49417 35.6389 9.57048 35.0276 10.9045 35.0276C12.0869 35.0276 12.6781 35.8142 12.6781 37.3925V37.648C12.6781 39.2112 12.1829 40.544 11.1875 41.6462C10.187 42.7986 8.90346 43.3748 7.34712 43.3748Z" fill="white"/>
<path d="M25.5227 45.4393C25.5227 45.6447 25.2751 45.805 24.7799 45.9203C24.3858 46.0205 24.0422 46.0756 23.7542 46.0756C23.5672 46.0756 23.3752 46.0756 23.1882 46.0756C22.5364 47.3031 21.7683 48.4054 20.879 49.3774C19.646 50.7402 18.5445 51.4216 17.5692 51.4216C16.215 51.4216 15.543 50.8103 15.543 49.5878C15.543 48.0597 16.2807 46.3712 17.7511 44.5224C19.2923 42.6035 20.8133 41.6465 22.3191 41.6465C23.4813 41.6465 24.0675 42.1826 24.0675 43.2498C24.0675 43.6055 23.8805 44.302 23.5015 45.3391C23.6733 45.3892 23.8249 45.4142 23.9664 45.4142C24.1028 45.4142 24.31 45.3892 24.5828 45.3391C24.8557 45.289 25.0629 45.2639 25.1993 45.2639C25.4116 45.2589 25.5227 45.319 25.5227 45.4393ZM22.4454 45.8952C21.5056 45.795 20.8385 45.3341 20.4444 44.5224C20.1513 44.8631 19.7269 45.5896 19.1609 46.7119V46.6868C19.1256 46.8722 18.9891 47.228 18.7516 47.754C18.5445 48.21 18.4434 48.5757 18.4434 48.8463C18.4434 49.187 18.6152 49.3574 18.9588 49.3574C20.0654 49.3574 21.2276 48.205 22.4454 45.8952ZM23.3398 43.4001C23.3398 42.8389 23.1175 42.5584 22.6728 42.5584C22.3292 42.5584 21.9654 42.7137 21.5813 43.0193C21.1973 43.3249 21.0053 43.6406 21.0053 43.9613C21.0053 44.302 21.1822 44.6126 21.5308 44.8882C21.8795 45.1637 22.2281 45.309 22.5717 45.309C22.6071 45.309 22.6475 45.299 22.6981 45.284V45.2589C22.8547 45.2589 23.0063 44.9884 23.1629 44.4422C23.2842 44.0214 23.3398 43.6706 23.3398 43.4001Z" fill="white"/>
<path d="M34.0979 45.4393C34.0979 45.6447 33.8503 45.805 33.3552 45.9203C32.961 46.0205 32.6174 46.0756 32.3294 46.0756C32.1424 46.0756 31.9504 46.0756 31.7634 46.0756C31.1116 47.3031 30.3435 48.4054 29.4542 49.3774C28.2212 50.7402 27.1197 51.4216 26.1444 51.4216C24.7902 51.4216 24.1182 50.8103 24.1182 49.5878C24.1182 48.0597 24.8559 46.3712 26.3263 44.5224C27.8675 42.6035 29.3885 41.6465 30.8943 41.6465C32.0565 41.6465 32.6427 42.1826 32.6427 43.2498C32.6427 43.6055 32.4557 44.302 32.0767 45.3391C32.2485 45.3892 32.4001 45.4142 32.5416 45.4142C32.678 45.4142 32.8852 45.3892 33.1581 45.3391C33.4309 45.289 33.6381 45.2639 33.7745 45.2639C33.9868 45.2589 34.0979 45.319 34.0979 45.4393ZM31.0206 45.8952C30.0808 45.795 29.4138 45.3341 29.0196 44.5224C28.7265 44.8631 28.3021 45.5896 27.7362 46.7119V46.6868C27.7008 46.8722 27.5644 47.228 27.3269 47.754C27.1197 48.21 27.0186 48.5757 27.0186 48.8463C27.0186 49.187 27.1904 49.3574 27.534 49.3574C28.6406 49.3574 29.8029 48.205 31.0206 45.8952ZM31.915 43.4001C31.915 42.8389 31.6927 42.5584 31.248 42.5584C30.9044 42.5584 30.5406 42.7137 30.1566 43.0193C29.7725 43.3249 29.5805 43.6406 29.5805 43.9613C29.5805 44.302 29.7574 44.6126 30.106 44.8882C30.4547 45.1637 30.8034 45.309 31.147 45.309C31.1823 45.309 31.2228 45.299 31.2733 45.284V45.2589C31.4299 45.2589 31.5815 44.9884 31.7382 44.4422C31.8594 44.0214 31.915 43.6706 31.915 43.4001Z" fill="white"/>
<path d="M47.0135 34.5412C46.5688 35.6636 45.8563 37.2719 44.8811 39.3762C44.2141 40.7991 43.734 41.7962 43.446 42.3523C42.9003 43.4746 42.3495 44.4316 41.8038 45.2282C40.7932 46.7213 40.1009 47.9588 39.7219 48.9459L39.9544 49.0962C40.6062 48.8908 41.1772 48.4248 41.6774 47.6983C42.2434 46.8866 42.6021 46.4257 42.7537 46.3255H42.8548C42.9205 46.4107 42.9559 46.5059 42.9559 46.6061C42.9559 47.3175 42.3596 48.2795 41.1721 49.482C39.9847 50.6895 39.0296 51.2907 38.3071 51.2907C37.7613 51.2907 37.3824 51.1554 37.1752 50.8849C37.1247 50.8197 36.9781 50.444 36.7406 49.7626C36.1595 50.7796 35.3611 51.2907 34.3505 51.2907C33.8907 51.2907 33.4864 51.0953 33.1428 50.7045C32.7992 50.3137 32.6274 49.8878 32.6274 49.4319C32.6274 47.9889 33.8301 46.0198 36.2303 43.5247C37.5188 42.182 38.6911 41.5156 39.7522 41.5156C39.8887 41.5156 40.1312 41.6058 40.4698 41.7811C40.8134 41.9615 41.061 42.0567 41.2176 42.0717C41.2884 42.0367 41.3439 41.9214 41.3995 41.716C41.4652 41.4454 41.7684 40.6839 42.299 39.4313C43.254 37.1366 44.0524 35.3629 44.6992 34.1054L46.1342 34.0502C46.5183 34.0402 46.8063 34.2005 47.0135 34.5412ZM40.7224 42.7882C40.6719 42.5677 40.5152 42.4575 40.2575 42.4575C40.02 42.4575 39.7623 42.5677 39.4895 42.7882V42.7632C38.6355 43.4596 37.827 44.3665 37.0741 45.4888C36.1848 46.7965 35.7401 47.8887 35.7401 48.7705C35.7401 49.1262 35.8866 49.3066 36.1747 49.3066C36.5688 49.3066 37.3924 48.3496 38.6406 46.4307C39.7573 44.7322 40.4495 43.5197 40.7224 42.7882Z" fill="white"/>
<path d="M78.8731 41.6162L76.7154 45.2337C76.3364 45.8449 75.9625 46.4462 75.5835 47.0424C75.154 47.7538 74.8407 48.3902 74.6336 48.9513L74.866 49.1016C75.5178 48.8962 76.1343 48.3902 76.7154 47.5735C77.2965 46.7568 77.6149 46.3409 77.6654 46.3259H77.7664C77.8321 46.4111 77.8675 46.5063 77.8675 46.6065C77.8675 47.3179 77.2713 48.2799 76.0838 49.4824C74.8963 50.6899 73.9413 51.2911 73.2187 51.2911C72.673 51.2911 72.294 51.1558 72.0868 50.8853C72.0363 50.8201 71.8897 50.4444 71.6523 49.763C71.0712 50.7801 70.2728 51.2911 69.2622 51.2911C68.8023 51.2911 68.3981 51.0957 68.0545 50.7049C67.7109 50.3141 67.5391 49.8882 67.5391 49.4323C67.5391 49.0916 67.625 48.7359 67.7968 48.3651L70.773 41.8467L73.724 41.6162C73.0418 42.5331 72.3698 43.6003 71.723 44.8228C70.9347 46.3359 70.5406 47.4883 70.5406 48.2849C70.5406 48.9663 70.7225 49.302 71.0813 49.302C71.5461 49.302 72.4405 48.2098 73.7745 46.0203C74.8003 44.3569 75.5633 42.964 76.0585 41.8467L78.8731 41.6162Z" fill="white"/>
<path d="M87.7968 34.416L85.7705 38.2589H87.6856L87.5037 38.9453H85.2753L81.0004 46.9618C80.6973 47.538 80.5457 48.1843 80.5457 48.9008L80.8287 49.5121C80.8943 49.5271 80.9398 49.5371 80.955 49.5371C81.2784 49.5371 81.8039 49.1363 82.5214 48.3397C83.2389 47.543 83.6836 47.1422 83.8554 47.1422C83.9413 47.1422 83.9818 47.1823 83.9818 47.2674C83.9818 47.4729 83.6028 48.014 82.8499 48.8958C81.3441 50.6594 80.2476 51.5412 79.5654 51.5412C79.1359 51.5412 78.7822 51.3859 78.4992 51.0703C78.2162 50.7546 78.0747 50.3889 78.0747 49.963C78.0747 48.5551 78.5295 46.8566 79.434 44.8725C79.6412 44.4316 80.4851 42.8534 81.9757 40.1378L85.0581 34.5363L87.7968 34.416Z" fill="white"/>
<path d="M28.1147 20.8835C31.4952 20.2873 34.8151 19.6309 38.1551 19.1349C43.1829 18.3934 47.8671 16.5646 52.6271 14.9313C55.3203 14.0094 58.1349 13.2929 60.9545 12.9372C62.9555 12.6816 65.0677 13.0975 67.104 13.3781C68.3926 13.5585 68.4128 13.7639 68.145 15.1968C63.7994 13.9843 59.474 14.1998 55.1738 15.4724C59.5194 14.7609 63.8499 14.33 68.0995 16.0987C67.5184 18.8393 66.1339 20.9837 64.0419 22.6672C61.0859 25.0421 57.7003 26.485 53.9055 26.6905C49.0192 26.956 45.4113 24.6513 42.7938 20.6981C42.4098 20.117 42.0207 19.9015 41.3436 19.9316C38.6655 20.0418 36.1137 20.623 33.6478 21.6651C32.5412 22.1361 31.3942 22.562 30.2219 22.8175C28.7666 23.1532 28.1249 22.5119 28.1147 20.8835Z" fill="#F54748"/>
<path d="M46.0734 16.1482C45.6388 14.7854 45.3002 12.8915 46.2654 11.3984C46.614 10.8573 46.9071 10.717 47.2254 10.2611C47.847 9.35924 48.2209 7.70083 46.8414 4.37399C47.3164 4.70968 47.943 5.25079 48.3725 6.0825C48.8626 7.02945 48.797 7.76095 48.9485 8.55258C49.1254 9.4895 49.656 10.7621 51.2477 12.16C51.0809 11.649 50.9041 10.9375 50.8636 10.0707C50.8283 9.21895 50.9344 8.49747 51.0557 7.98141C51.2376 8.50749 51.5307 9.17888 52.0157 9.88032C52.3391 10.3463 52.6726 10.722 52.9758 11.0177C52.5564 10.4064 52.0006 9.44442 51.6368 8.16679C51.3589 7.18978 51.0557 5.55642 51.4448 3.60741C51.7783 1.93898 52.4857 0.711463 52.9758 0C52.9404 0.611257 52.9556 1.77866 53.5519 3.03624C54.4665 4.97523 56.134 5.83199 56.614 6.07249C57.8166 6.67372 58.0642 6.34805 60.4442 7.02444C62.3037 7.55052 63.2335 7.81607 64.0824 8.54256C64.5675 8.95341 65.6943 10.0857 65.9975 12.5308C64.9061 12.3504 63.4306 12.1901 61.6873 12.2452C59.7368 12.3053 58.2714 12.6059 57.281 12.8164C55.7651 13.137 54.5473 13.5378 52.1118 14.3345C50.6969 14.8004 49.6863 15.1662 47.8975 15.6622C47.1345 15.8827 46.5029 16.043 46.0734 16.1482Z" fill="#FDC55E"/>
<path d="M58.0337 12.4705C58.0589 12.5507 59.1706 12.1098 60.7168 11.8993C62.5561 11.6488 64.1479 11.8392 65.3151 12.0897C65.3252 11.258 65.0877 10.6818 64.9311 10.3812C64.5218 9.58459 63.8901 9.14368 63.208 8.67271C62.6774 8.30195 62.1974 8.06144 61.8689 7.91113C62.3136 8.25684 62.8644 8.75286 63.4 9.42925C63.9558 10.1307 64.3146 10.8021 64.547 11.3282C63.7739 11.2079 62.6319 11.1127 61.2929 11.3282C59.4788 11.6288 58.0033 12.3803 58.0337 12.4705Z" fill="white"/>
<path d="M88.408 56.1362C89.3731 54.7183 93.5924 54.7935 96.3716 55.2945C93.8653 53.3255 90.9294 52.3384 87.554 52.3384C86.7303 52.3384 85.4317 52.5138 83.6531 52.8695C80.2625 53.5459 77.8168 54.092 76.311 54.4979C74.411 55.0089 73.1023 55.2645 72.3848 55.2645C71.839 55.2645 71.2883 55.2043 70.7425 55.0841C69.6662 54.8486 68.6809 54.0219 67.7915 52.614C67.362 51.9376 67.1498 50.8153 67.1498 49.2521C67.1498 48.3853 67.357 47.1077 67.7663 45.4092C68.2109 43.5754 68.6455 42.3629 69.075 41.7667C71.1114 41.0051 72.9608 40.0682 74.6182 38.9659C76.9982 37.3877 78.1857 35.8846 78.1857 34.4617C78.1857 33.8654 77.9835 33.3995 77.5843 33.0638C77.1801 32.7231 76.6748 32.5527 76.0583 32.5527C74.3959 32.5527 72.3696 33.8354 69.9745 36.3956C68.3827 38.1092 66.8416 40.1283 65.3509 42.4531L63.1427 43.0894C64.1331 39.6624 65.5632 36.8115 67.4328 34.5368C67.5844 34.3514 67.6905 34.2162 67.741 34.131L67.6652 33.9807L67.5136 33.9055C66.7456 34.0408 64.8204 36.06 61.738 39.963C60.692 41.2857 59.7774 42.6786 58.9891 44.1366C58.8375 44.2067 58.6556 44.2368 58.4485 44.2368C58.1251 44.2368 57.3166 44.0414 56.0331 43.6506C55.3307 43.0894 54.9821 42.3779 54.9821 41.5112C54.9821 37.8436 57.9886 35.4286 63.9917 34.2562C62.0766 34.0859 61.0205 34.0007 60.8335 34.0007C59.0852 34.0007 57.4682 34.7673 55.9826 36.3055C54.4919 37.8436 53.7491 39.482 53.7491 41.2306C53.7491 42.4882 54.2544 43.4301 55.265 44.0564C56.119 44.5975 57.2155 44.8731 58.5495 44.8731C57.7259 46.792 56.9679 48.1849 56.2655 49.0467C55.1185 50.4746 53.7643 51.1861 52.208 51.1861C51.6269 51.1861 51.0356 51.0658 50.4343 50.8303C49.6814 50.5397 49.3024 50.1539 49.3024 49.6579C49.3024 49.3172 49.5955 49.0366 50.1766 48.8162C50.212 48.8011 50.6567 48.6709 51.5106 48.4354C52.026 48.1999 52.2787 47.8141 52.2787 47.288C52.2787 46.777 52.117 46.3712 51.7885 46.0655C51.4651 45.7599 51.0457 45.6046 50.5303 45.6046C49.7774 45.6046 49.1609 45.8701 48.6809 46.4062C48.2009 46.9423 47.9634 47.5887 47.9634 48.3552C47.9634 49.5276 48.5192 50.4095 49.6309 51.0007C50.5202 51.4767 51.6066 51.7121 52.8901 51.7121C55.3206 51.7121 57.4277 50.9255 59.2064 49.3473C60.7981 47.9594 62.0311 46.0505 62.9052 43.6255C63.7794 43.4 64.4616 43.2046 64.9568 43.0343C64.0472 45.344 63.5975 47.4534 63.5975 49.3723C63.5975 51.2362 63.9563 52.594 64.6738 53.4457C66.1796 55.2244 67.5086 56.2214 68.6556 56.4218C69.5955 56.5922 70.2877 56.6773 70.7375 56.6773C71.8845 56.6773 72.9709 56.5321 73.9967 56.2465L77.1548 55.3546C78.4029 54.9989 79.6813 54.6933 80.98 54.4377C81.748 54.2874 82.4606 54.2073 83.1124 54.2073C85.0124 54.2073 86.503 54.6131 87.5793 55.4298C87.8623 55.6552 88.1402 55.8907 88.408 56.1362ZM72.0209 36.2704C73.4055 34.1811 74.6637 33.1389 75.7955 33.1389C76.5131 33.1389 76.8718 33.5147 76.8718 34.2612C76.8718 35.4988 75.932 36.8566 74.0472 38.3346C72.5919 39.472 71.076 40.3638 69.5045 41.0101C70.308 39.1563 71.1468 37.5781 72.0209 36.2704Z" fill="white"/>
<path d="M96.9398 56.2238C97.0365 56.7629 97.0701 57.4965 96.616 58.0153C96.452 58.2018 96.33 58.2423 96.1829 58.4004C95.8927 58.7125 95.6614 59.3205 96.0231 60.6539C95.8549 60.504 95.6404 60.2648 95.5142 59.9284C95.3712 59.5474 95.4385 59.2678 95.4217 58.9638C95.4007 58.599 95.2619 58.0883 94.7152 57.4803C94.753 57.683 94.7867 57.9626 94.7531 58.291C94.7236 58.6152 94.6437 58.8827 94.568 59.0732C94.526 58.8665 94.4461 58.5949 94.2947 58.3031C94.1938 58.1086 94.0844 57.9505 93.9793 57.8208C94.1097 58.0761 94.2779 58.4652 94.3536 58.9678C94.4124 59.3529 94.4419 59.9892 94.1896 60.7066C93.9709 61.3227 93.6303 61.7524 93.4032 61.9996C93.4494 61.7686 93.5042 61.3268 93.3402 60.8201C93.0878 60.0379 92.4823 59.6285 92.3056 59.515C91.8683 59.2272 91.7548 59.3367 90.8633 58.9597C90.1652 58.6679 89.8162 58.5179 89.5218 58.2018C89.3536 58.0194 88.9751 57.533 88.9835 56.5927C89.9633 55.1822 95.0096 55.5875 96.9398 56.2238Z" fill="#F54748"/>
<path d="M90.409 35.5335C91.2462 35.5335 91.9249 34.8606 91.9249 34.0304C91.9249 33.2003 91.2462 32.5273 90.409 32.5273C89.5718 32.5273 88.8931 33.2003 88.8931 34.0304C88.8931 34.8606 89.5718 35.5335 90.409 35.5335Z" stroke="white" stroke-width="0.25" stroke-miterlimit="10"/>
<path d="M89.7725 33.1691H90.015V34.8976H89.7725V33.1691ZM89.8786 33.9357H90.4748C90.5203 33.9357 90.5607 33.9256 90.5961 33.9006C90.6315 33.8805 90.6618 33.8455 90.677 33.8054C90.6972 33.7653 90.7073 33.7152 90.7073 33.6651C90.7073 33.61 90.6972 33.5649 90.677 33.5248C90.6568 33.4847 90.6315 33.4547 90.5961 33.4296C90.5607 33.4096 90.5203 33.3945 90.4698 33.3945H89.8736V33.1641H90.4597C90.5607 33.1641 90.6466 33.1841 90.7275 33.2242C90.8083 33.2643 90.8639 33.3244 90.9043 33.3995C90.9448 33.4747 90.965 33.5649 90.965 33.6601C90.965 33.7603 90.9448 33.8455 90.8993 33.9206C90.8538 33.9958 90.7982 34.0559 90.7224 34.096C90.6466 34.1361 90.5557 34.1561 90.4597 34.1561H89.8736V33.9357H89.8786ZM90.3536 34.111L90.5961 34.0559L91.0408 34.8976H90.7528L90.3536 34.111Z" fill="white"/>
</svg>
