<svg width="8" height="8" viewBox="0 0 8 8" fill="none" xmlns="http://www.w3.org/2000/svg">
<path d="M6.35464 5.16494C6.25706 5.2595 6.21223 5.39625 6.23446 5.53037L6.56938 7.38391C6.59763 7.54101 6.53133 7.69999 6.39985 7.79079C6.271 7.88497 6.09959 7.89627 5.95906 7.82093L4.2905 6.95066C4.23248 6.91977 4.16806 6.9032 4.10213 6.90131H4.00004C3.96462 6.90659 3.92996 6.91789 3.89832 6.93522L2.22938 7.80962C2.14687 7.85106 2.05344 7.86576 1.96189 7.85106C1.73887 7.80887 1.59006 7.59639 1.6266 7.37223L1.96189 5.51869C1.98412 5.38344 1.93929 5.24593 1.84172 5.14987L0.481321 3.83129C0.367547 3.72091 0.32799 3.55514 0.379979 3.40558C0.430462 3.25639 0.559306 3.14751 0.714898 3.12303L2.58728 2.8514C2.72968 2.83671 2.85476 2.75006 2.9188 2.62197L3.74386 0.930421C3.76345 0.892747 3.78869 0.858088 3.8192 0.828702L3.85311 0.802331C3.87082 0.78274 3.89116 0.766541 3.91376 0.753355L3.95483 0.738286L4.01887 0.711914H4.17748C4.31913 0.726607 4.44383 0.811372 4.50901 0.937956L5.34498 2.62197C5.40526 2.74516 5.52243 2.83068 5.65768 2.8514L7.53005 3.12303C7.68828 3.14563 7.82052 3.25488 7.87288 3.40558C7.92224 3.55665 7.87967 3.72241 7.76363 3.83129L6.35464 5.16494Z" fill="#FFAC37"/>
</svg>
